<?xml version="1.0" encoding="UTF-8"?>
<!-- Created with Inkscape (http://www.inkscape.org/) -->
<svg width="604.34" height="495.56" version="1.1" viewBox="0 0 604.34 495.56" xml:space="preserve" xmlns="http://www.w3.org/2000/svg"><g transform="matrix(1.3333 0 0 -1.3333 -38.667 588.9)"><g transform="scale(.1)" fill="#eff0f0"><path d="m2022 4409.1c-182-24.35-421.01-103.3-587-193.92-201-109.72-433.89-317.12-567.27-505.15-127.44-179.67-229.41-417-279.26-650-19.153-89.5-22.543-136-22.969-315-0.43-180 2.758-226.14 22.293-323 61.312-304 206.94-595.96 401.53-805l44.68-48-188-188-62 59.25c-97.34 93.03-93 94.75-311-123.25-120-120-183-190.23-183-204 0-37.46 37-73 76-73 31.379 0 50 14.69 180 142l145 142 229-229-145-145.5c-126.56-127-145-149.57-145-177.5 0-42 30-72 72-72 28.328 0 53 21 215 183 151 151 183 187.89 183 211 0 21.45-17.41 46-74.5 105l-74.5 77 188 187 83-62.66c401.25-302.91 901-412.4 1388-304.08 577 128.34 1046.5 555.57 1228.3 1117.7 53.36 165 68.18 240.16 53.62 272-19.64 43-92.58 54.36-121.93 19-5.5-6.62-23.09-64-39.25-128-96.96-384-318.48-699.68-644.71-918.78-167.82-112.7-353-187.67-568-229.94-143-28.11-394.75-30.47-533-4.98-331 61.02-604.11 203.92-834.59 436.7-408.99 413.05-549.21 1014-365.63 1567 75.36 227 191.38 411.16 374.22 594 223.31 223.31 459 352.47 769 421.43 81.76 18.18 130 21.65 307 22.07 184 0.44 222.88-2.38 314-22.79 205-45.89 375.09-118.3 545-232.01 338.48-226.52 576.48-583.7 652.14-978.7 20.88-109 38.38-133.88 90.86-129.21 25 2.23 42.11 11.46 56 30.21 19.57 26.42 19.63 29 3 120-9.36 51.23-34.67 146-56.33 211-194.19 582.54-670.67 1003.4-1277.7 1128.6-112.87 23.27-422 33.29-540 17.5"/><path d="m2075 4113.1c-308-39.64-592.55-179.27-809.36-397.14-188.56-189.49-305.94-398-371.54-660-35.254-140.79-44.032-387-19.145-537 132.39-798 906.52-1312.2 1692-1124 259 62.07 484.42 193.72 678.02 395.98 170.62 178.27 273.08 363 334.43 603 36.05 141 23.35 186-52.45 186-43.77 0-57.66-22-87.75-139-35.76-139-88.82-261.2-161.55-372-191.86-292.31-480.7-484.17-827.7-549.78-109.9-20.78-338-15.82-460 10-493 104.35-878.27 501.78-964.34 994.78-19.79 113.38-19.95 308-0.33 423 87.8 514.8 492.67 919.25 1008.7 1007.6 181 30.99 411.86 14.93 582-40.49 341-111.08 632.53-374.89 760.45-688.14 33.07-81 66.23-105.76 114.55-85.52 32 13.4 49 36.48 49 66.52 0 10.45-26.61 73-59.14 139-235.7 478.3-722.86 778.91-1251.9 772.5-68-0.82-137.55-3.24-154-5.36"/><path d="m2543 3543.5c-12.78-2.48-34.55-16.46-49-31.46-16.25-16.87-105.69-213-238.5-523-116.96-273-215.65-504.32-219.5-514.5-5.09-13.45-39.22 51-125 236-64.91 140-124.45 264.85-132.34 277.5-20.11 32.24-74.66 55.17-113.66 47.77-50.35-9.56-77.34-36.77-143.62-144.77-33.76-55-71.28-106.98-83.38-115.5-16.85-11.87-49.5-15.5-139.5-15.5-115 0-117.93-0.55-137.93-26-26.71-34-26.54-54 0.75-88l21.68-27 152 3c145 2.86 153.8 4.22 191 29.5 25.86 17.57 58.21 57.5 96 118.5l57 92 48.5-103.5c26.63-56.82 79.9-172.5 118.13-256.5 72.8-160 104.23-206.05 148.37-217.43 43-11.07 97.58 4.31 125.7 35.43 14.76 16.34 114.6 237 239.8 530 117.93 276 216.37 496.15 218.65 489 45.69-143 424.73-1215.9 433.13-1226 20.34-24.48 66.72-43 107.72-43 77.98 0 84.36 11 252.59 436l152.41 385 38.57-83c43.21-93 66.06-121.5 119.43-148.96 34.99-18 66-19.04 571-19.04 522 0 534.41 0.45 552 20 23.4 26 23.4 74 0 100-17.57 19.52-30 20-521 20-311 0-512.93 3.82-529 10-20.55 7.9-38.35 36-84.9 134-63.65 134-84.96 156-151.1 156-37 0-83.24-25.46-98.08-54-6-11.54-78.07-190-159.92-396-82.64-208-151.67-368.32-155-360-3.3 8.25-95.96 275-206 593s-206.16 592.84-213.68 611c-21.12 50.95-83.32 81.09-143.32 69.46"/></g></g></svg>
