<?xml version="1.0" encoding="UTF-8"?>
<!-- Created with Inkscape (http://www.inkscape.org/) -->
<svg width="958.16" height="1049" version="1.1" viewBox="0 0 958.16 1049" xml:space="preserve" xmlns="http://www.w3.org/2000/svg"><g transform="matrix(1.3333 0 0 -1.3333 -16.576 1114.8)"><g transform="scale(.1)"><path d="m5847 8354.1c-47-16.63-84.63-45.74-111.32-86.12-56.17-85-88.38-140.26-129.95-223-40.2-80-53.23-96.57-107.73-137.12-138-102.65-243.36-224.7-222.62-257.88 3.1-4.97-17.88-21.09-46.88-36-29.17-15-80.5-53.67-115.5-87-43-40.95-72.52-61.11-93-63.5-16.12-1.88-45.5-9.98-63.5-17.5-21-8.78-38.72-10.7-47.5-5.14-21 13.28-57 10.62-90-6.67-16.07-8.42-62-16.53-103-18.19-50-2.03-88.27-9.97-118-24.5-24-11.73-46.73-21.5-50-21.5-3.36 0-8.2 16.5-11 37.5s-7.86 46.52-11.5 58c-5.62 17.71-1 22.2 34 33 23 7.1 47.41 23.09 56.5 37 14.37 22 14.47 26.9 1 48-13.3 20.83-25 24.23-103 29.89-117 8.49-181.52 39.83-240.06 116.61-22.81 29.92-70.44 77.8-104.44 105s-90.77 75.64-124.5 106.22c-78.09 70.82-133 95.79-260 118.25-118 20.87-196.93 15.1-269-19.67-62-29.9-119.09-83.3-114.18-106.8 4.06-19.41 7.18-19.61 106.18-6.84l53 6.84-23-41c-20.15-35.91-39-49.31-152-108-71-36.87-149.23-79.81-174-95.5-33-20.9-51.93-26.8-71-22.15-47.81 11.68-166 69.66-217 106.45-83 59.88-177.11 93.88-186 67.2-4.11-12.32-317 145.27-389 195.93-25.91 18.23-75.5 47.43-110.5 65.07s-76.96 41.88-93.5 54c-29 21.27-95.85 55-109 55-3.29 0-25 8.7-48 19.23-87 39.85-208.23 82.06-218 75.9-16-10.09-12-25.28 12-45.59 27.66-23.4 24-23.65-79-5.21-75.17 13.45-91 13.05-190-4.83-59-10.65-139.76-24.49-178-30.5-38.35-6.03-122-28.88-185-50.54-161-55.37-170-59.2-170-72.46 0-6.71-15-19.28-34-28.5-18.949-9.2-61-37.02-95-62.86-111-84.36-154.51-113.34-216-143.86-33-16.38-75.523-41.25-94.5-55.28-19-14.04-40.789-25.5-48.5-25.5-7.84 0-35.559-22-63-50-41.16-42-49-56.08-49-88 0-65.26 70-106.27 155-90.82 67 12.18 397.36 20.03 450 10.69l50-8.87-60-17.88c-89-26.51-185-72.24-185-88.12 0-64.86 143-90.21 380-67.37 141 13.59 341.4 24.62 398 21.91 48.1-2.3 39-16.33-26-40.06-81-29.59-182-91.45-182-111.48 0-25.81 29-59.5 68-79 43.86-21.93 275-37.52 497-33.52 130.94 2.36 151 5.48 310 48.2 260 69.87 300.98 76.46 485 77.97 91 0.74 173.3-2.01 183.5-6.15 15.82-6.41 7.5-17.76-57.5-78.38-79-73.68-95.89-105.13-52-96.84 14 2.64 23.68 2.08 22-1.28-41-82-62.05-152.84-50.81-171 4.18-6.75 23.81 4.74 50.81 29.74 51 47.22 59.11 49.71 39.9 12.26-28.2-54.98-55.9-165-55.9-222 0-89 30.54-93.1 44.7-6 8.26 50.88 20.22 34 28.34-40 6.86-62.59 43.88-155 98.95-247 50.88-85 73.62-90.34 63.87-15l-6.86 53 29.4-45c60.85-93.12 133.6-142.32 251.6-170.13 103.8-24.48 398 1.34 557 48.86 27.03 8.08 36 5.29 70-21.73 110-87.45 189.31-179 250.36-289l31.64-57-37-22.77c-52-32-175.42-121.38-183.97-133.23-11.81-16.38 1.97-25 39.97-25h36l-28.5-29.5c-15.78-16.33-53.5-42.67-84.5-59-30.61-16.12-95-50.18-142-75.11-126.21-66.94-247-98.49-559-146-177.67-27.05-210-26.3-407 9.47-91 16.52-167.81 30.14-170 30.14-13.55 0 3.02-32 32.1-62l34.9-36-43-6.3c-61-8.93-160.88-51.2-164.7-69.7-2.5-12.12 4.7-16.12 29.7-16.5l33-0.5-25-19.95c-139-110.91-195.1-160.89-325-289.51l-150-148.54-15.82 31c-18.94 37.13-71.18 67.32-117.18 67.71-18 0.16-58-11.98-88-26.71-45-22.09-58.09-24.79-72-14.83-36 25.78-99.1 51.16-128 51.49-58.32 0.68-184-56.88-255-116.78-89-75.1-90.01-235.32-2-316.92 26.13-24.23 27.8-30.46 25-93.46-2.67-60 0.43-73.39 27.84-120.5 29.09-50 98.37-112 125.16-112 8.89 0 11.41-12 7.95-38-7.3-55 13.03-117.61 52.29-161 64.8-71.62 174.76-83.05 279.76-29.07 39.33 20.21 43 20.39 90 4.32 63-21.55 140.07-20.55 190 2.46 63 29.03 164.48 110.76 192.82 155.29 61.66 96.9 67.72 225 17.55 371l-34.37 100 52 48.62c171.78 160.59 415 317 609 391.61 264.8 101.85 539 121.57 910 65.44 58-8.78 299.03-88.29 314.22-103.67 8.05-8.14-41.02-95-85.88-152-21.5-27.33-62.91-84-91.34-125s-66.05-89.05-83-106c-16.69-16.69-40.3-49-51.15-70-25.84-50-114.09-182-161.8-242-58.77-73.93-218.05-248.29-312.05-341.62-47-46.66-115.82-117.12-151.76-155.38-121.66-129.51-377.24-361.41-509.24-462.06-30.55-23.3-95-73.05-145-111.94s-97.78-70.22-107.5-70.5c-9.56-0.27-61.5 10.82-114.5 24.44-108 27.77-246.52 92.27-338 157.36-33.06 23.53-104 73.54-158 111.4-106.81 74.87-360.46 320.3-508.78 492.3-94.86 110-183.3 235.61-227.43 323-15.66 31-36.09 62.93-44.79 70-13.47 10.95-17.74 8.5-27-15.5-6.07-15.74-8.54-52-5.5-81s3.71-52.5 1.5-52.5c-2.2 0-15.14 35-28.84 78-107.31 337-215.53 528.37-407.16 720-55 55-75.07 69.52-85 61.5-10.805-8.73-10.637-17 1-49 7.746-21.3 17.129-59.5 21-85.5l7-47-43.789 49c-137.61 154-261.11 255.27-364.21 298.68-32 13.48-34.836 13.03-48.234-7.68-35.856-55.41-48.996-147-42.758-298 3.305-80 12.715-178.62 20.992-220 8.199-41 15-87.24 15-102 0-34.39 97.336-330 146.86-446 20.493-48 58.657-119.95 85.141-160.5 26.121-40 53.012-94.7 59-120 5.984-25.3 24.223-75 40-109s29-64.55 29-67c0-2.47 28.648-64.5 63.5-137.5 43.926-92 81.07-153.65 120.5-200l57-67-30-15.5c-16.391-8.47-79-32.96-138-53.98-223-79.45-332.59-152.93-381.14-255.52-15.961-33.73-36.465-99-45.863-146-9.352-46.75-32.074-130-50.5-185s-36.301-119.35-39.727-143c-7.964-55 17.684-144.39 55.665-194 22.203-29 26.402-43 21.605-72-7.781-47 13.648-153.37 37.672-187 10.715-15 19.285-30.78 19.285-35.5 0-4.7 13.969-25.5 31.227-46.5 33.324-40.55 82.773-69.86 138.77-82.25 33-7.31 33.742-8.32 13-17.7-25-11.3-37.234-36.82-24-50.05 4.969-4.97 75.5-9.45 157.5-10 142-0.96 151.56 0.25 218.5 27.5 39 15.88 93.027 43.16 122 61.61 63 40.12 264.18 225.27 298.68 274.89 24.34 35 69.38 67.94 79.32 58 9.17-9.17-15.41-134-37.2-189-11.92-30.07-40.61-89-63.3-130s-55.1-99.93-71.5-130c-16.36-30-40.04-71.82-52.07-92-28.22-47.28-50.1-129-51.69-193-0.69-28-4.54-63.2-8.74-80l-7.5-30-10.988 27c-16.688 41-30.633 42.83-45.711 6-23.742-58-28.395-122.52-11.746-163 18.511-45 19.234-52.79 3.445-37-18.668 18.67-48 15-48-6 0-31 90-113.96 180-165.93 84.05-48.523 86-49.078 175-49.894 93.57-0.86 167 17.054 273 66.604 53.61 25.06 187 106.58 248 151.56 83.89 61.87 342 282.21 434 370.5 52 49.89 131.21 118.54 175 151.66 44.36 33.54 125 98.32 181 145.39 133 111.78 175.31 140.2 287 192.76 192 90.35 267.32 117.82 288 105.02 8.4-5.2 20-3.47 29 4.34 22.93 19.89 414 110.57 590 136.81 41.54 6.19 133 25.23 205 42.68 122.49 29.68 143 31.7 355 34.93 351 5.34 668.06-15.32 842-54.88 36-8.18 65.07-40.48 50-55.55-8.25-8.25-7.04-17 4.84-35 38.34-58.09-28.23-292-123.52-434-26.85-40-57.15-86.22-68.18-104-29.09-46.86-73.75-96-301.76-332-195.16-202-225.91-236.75-300.82-340-39.93-55.039-72.56-158-72.56-229 0-41 3.61-54 15-54 8 0 15 5.133 15 11 0 6.063 22-8.828 49-33.164 60.55-54.574 164-116.8 251-150.98 111-43.605 248.57-78.933 283-72.671 17.64 3.203 133 8.293 257 11.336 315 7.722 583.7 44.043 705 95.285 239 100.97 337.54 161.77 389.27 240.2 14.19 21.504 37.62 80.5 52.23 131.5 18.05 63 38.29 108.45 63.46 142.5 42.75 57.85 49.32 76 59.63 165 8.35 72-2.03 140.69-31.73 210-26.79 62.5-52.86 87.64-124.86 120.36-36 16.37-63 35.07-63 43.64 0 9.16-18.5 20.45-47.5 29l-47.5 14 38 16.75c37 16.32 46.16 29.72 28 40.96-14.25 8.83-149-20.25-223-48.11-37-13.93-87.37-38.82-110.5-54.6-23.61-16.11-62.5-39.81-87.5-53.32-52.66-28.47-103-63.36-249-172.6-162.78-121.79-311-180.51-487-192.94l-87-6.14 26.45 34c33.25 42.75 65.55 73.74 136.55 130.99 147 118.53 210.35 172.35 275 233.65 39 36.97 93.91 84.27 124 106.79 80 59.91 183.24 165.29 222.94 227.57 19.13 30 40.43 79.55 46.87 109 12.99 59.36 7.01 161-13.58 231-7.35 25-15.68 55.45-18.73 68.5-5.15 22-4.29 22.41 13.5 6.5 11-9.84 25.95-14.47 35.5-11 14.52 5.28 13.2 10.5-11 43.5-15.4 21-38.94 50.26-53.5 66.5l-26 29 45-7.12c107-16.93 108.2-12.52 22.57 83.12-51.94 58.01-78.57 78.23-145.57 110.5-45 21.68-98.92 42.43-119.5 46-21 3.64-37.5 10.46-37.5 15.5 0 5.03 24.5 25.11 55.5 45.5s53.75 41.36 51.54 47.5c-4.77 13.25-11.04 12.29-117.04-17.88-171.87-48.92-429-65.49-625-40.27-60.66 7.8-232 16.2-382 18.72-308 5.18-329.27 8.48-458 71.2l-60 29.23 2.03 50c1.75 43.19 47.59 197 81.95 275 18.77 42.62 126.92 190 177.58 242 109.68 112.6 287.44 241.37 493.44 357.46 52 29.31 128.95 74.81 170 100.54 41 25.7 104.02 62.52 139 81.23 82.36 44.06 208.27 150.77 277 234.77 29.45 36 54 63.73 54 61 0-2.77-9-26-20.14-52-23.57-55-24.47-65-5.86-65 12.57 0 75.38 63 138.56 139 27.44 33 27.44 33 27.44 8 0-41.48 15.48-40 52.13 5 88.16 108.24 127.87 207 127.87 318 0 39 1.33 70 3 70 1.65 0 25-10.55 52-23.5s62.7-23.05 79.5-22.5c27.11 0.89 30.83 4.5 33.5 32.5 2.29 24-2.95 36.14-22 51l-25 19.5 73.5-4.5c63-3.86 81.07-1.03 126.5 19.79 61 27.96 111.21 73.37 106.93 96.71-2.09 11.45-22.43 18.85-71.43 26l-68.5 10 44 24.34c80.19 44.37 232 163.27 319 249.83 247 245.77 534.1 566.81 664.29 742.83 82.42 111.43 168.73 293 198.71 418 36.2 151 39.25 179.77 26 246-24 120-158 274.96-268 309.93l-60 19.07 1 85.5c0.86 73-2.34 90.91-21.87 122.5-45.53 73.67-123.13 119.46-249.13 146.99-71 15.51-88.84 16.62-97 6.01-5.43-7.06-26-16.52-45-20.7-78.38-17.24-118.04-82.3-124.55-204.3-1.33-25-3.13-58.1-3.95-72.5-1.11-19.66-9.5-29.73-32.5-39-17-6.86-59-40.08-93-73.57-57.6-56.75-88.1-106.93-152.5-250.93-27.28-61-63.5-179.65-63.5-208 0-49.35 83-116.03 315-253.07 108-63.79 115-70.67 115-112.93 0-39-20.46-125.07-37.08-156-45.65-84.93-201.92-260.7-337.92-380.07-36-31.6-78.27-70.2-93-84.93-27.09-27.09-75-36.89-212-43.35l-35-1.65-7.77 62c-14.3 114-112.69 350.47-172.69 415-29.39 31.61-23.54 32.88 60.46 13.12 33-7.77 63.38-10.74 67.5-6.62 4.11 4.11 2.74 21.5-3.04 38.5-14.48 42.58-126.46 133.38-292.46 237.13-58 36.25-58.69 37.23-40.5 57.87 10.03 11.38 43 39.09 72 60.5s49.61 43.16 45 47.5c-4.68 4.4-89.5 3.74-188.5-1.47-292-15.37-409.75 0.81-553 75.97-61 32.02-222 168.71-222 188.5 0 13.57 93 60.19 187 93.74 85.72 30.6 159 49.18 332 84.2 73 14.77 121.95 48.15 148.19 101.06 15.38 31 30.19 48 41.81 48 33.38 0 236 107.62 318 168.9 103 76.98 169.95 151.58 213.65 238.1 18.69 37 43.7 83.96 54.86 103 35.81 61.11 54.49 141 54.49 233 0 84.41 1.02 88 54.77 194 87.21 172 106.34 292.08 64.2 403-34.57 91-64.81 114.34-121.97 94.12zm-12-184.12c0-51-19.71-73.54-40.22-46-17.6 23.63-19.26 69-3.59 98 9.73 18 12.46 18.4 27.31 4 9.9-9.6 16.5-32 16.5-56zm-1371.6-731c15.04-24.07 1.62-49-26.38-49-35 0-51.8 22.66-37.08 50 13.22 24.55 47.83 24 63.46-1zm-2388.4-4665c54-6.17 63.14-9.26 40-13.5-17-3.12-28.92-9.83-27.5-15.5 2.49-9.96 46.5-11.79 152.5-6.33 120 6.18 220 1.33 220-10.67 0-14.47-114.15-197-178.86-286-151.24-208-228.51-293.64-412.14-456.77-116-103.05-234.7-182.09-293-195.09l-32-7.14 6.78 41c16.54 100 61.49 273.88 82.73 320 12.86 27.91 65.22 118 115.67 199 124.57 200 126.22 203.17 166.05 320 19.09 56 37.02 108.09 39.77 115.5 3.11 8.4 13.5 11.61 27.5 8.5 12.54-2.79 53.5-8.54 92.5-13" fill="#eff0f0"/><path d="m7280 5110c0-5.33 7-10 15-10s15 4.67 15 10-7 10-15 10-15-4.67-15-10" stroke="#000"/><path d="m1711 550.76c-8.8-5.508-11.4-15.262-7-26.262 4.8-12 10.46-14.043 18-6.5 15.4 15.402 6 43.406-11 32.762" stroke="#000"/></g></g></svg>
