<?xml version="1.0" encoding="UTF-8" standalone="no"?>
<svg
   viewBox="0 0 199.08228 115.54239"
   version="1.1"
   id="svg29"
   sodipodi:docname="crownlabs.svg"
   inkscape:version="1.1.2 (0a00cf5339, 2022-02-04)"
   width="199.08229"
   height="115.54239"
   xmlns:inkscape="http://www.inkscape.org/namespaces/inkscape"
   xmlns:sodipodi="http://sodipodi.sourceforge.net/DTD/sodipodi-0.dtd"
   xmlns="http://www.w3.org/2000/svg"
   xmlns:svg="http://www.w3.org/2000/svg"
   xmlns:rdf="http://www.w3.org/1999/02/22-rdf-syntax-ns#"
   xmlns:cc="http://creativecommons.org/ns#"
   xmlns:dc="http://purl.org/dc/elements/1.1/">
  <sodipodi:namedview
     id="namedview31"
     pagecolor="#ffffff"
     bordercolor="#666666"
     borderopacity="1.0"
     inkscape:pageshadow="2"
     inkscape:pageopacity="0.0"
     inkscape:pagecheckerboard="0"
     showgrid="false"
     inkscape:zoom="2.7939262"
     inkscape:cx="115.60792"
     inkscape:cy="55.656444"
     inkscape:window-width="1920"
     inkscape:window-height="1021"
     inkscape:window-x="1"
     inkscape:window-y="1200"
     inkscape:window-maximized="1"
     inkscape:current-layer="svg33"
     width="200px"
     fit-margin-top="0"
     fit-margin-left="0"
     fit-margin-right="0"
     fit-margin-bottom="0" />
  <defs
     id="defs4">
    <style
       id="style2">.cls-1{fill:#003676;}.cls-2{fill:#f8f9fa;}</style>
  </defs>
  <title
     id="title6">Risorsa 1</title>
  <g
     id="Livello_2"
     data-name="Livello 2"
     transform="translate(-1.2126071,-59.850821)">
    <g
       id="svg33">
      <g
         id="surface715"
         style="fill:#eff0f0;fill-opacity:1"
         transform="matrix(0.98923982,0,0,0.94041612,-12.825486,9.2677183)">
        <path
           id="path2"
           class="cls-2"
           d="m 114,54.3 a 20.5,20.5 0 0 0 -3,2.4 c -7.2,6.7 -8.6,21.8 -4.2,43.6 0.3,1.3 -0.1,1 -1.7,-1.6 -3.5,-5.4 -6.8,-7.4 -11.7,-6.9 a 10.3,10.3 0 0 0 -8.6,13.7 c 0.9,2.4 4.4,6 7.9,8 l 1.9,1.1 -0.4,-1.2 c -0.9,-3 -0.9,-4 0.2,-5.1 2.9,-2.9 6.6,-1.5 9.3,3.5 l 1.8,3.2 h 9.4 l -0.3,-1.5 c -0.2,-0.8 -0.7,-4.9 -1.2,-9 -1.1,-9.9 -0.8,-20.6 0.8,-25.6 a 13.49,13.49 0 0 1 1.6,-3.8 c 0.9,-0.6 2.2,5.7 2.8,13.4 0.4,4.5 -0.5,15.9 -1.6,21.8 -0.4,2.1 -0.7,4.1 -0.7,4.3 0,0.2 2.2,0.4 4.8,0.4 h 4.8 l 1.4,-3 c 1.6,-3.4 3.3,-4.8 6,-4.9 a 3.52,3.52 0 0 1 3.1,1.4 c 1.3,1.5 1.4,2.9 0.4,5.2 -0.6,1.5 4.4,-1.8 6.9,-4.5 3.8,-4.1 4.2,-9 1.3,-13 a 9.76,9.76 0 0 0 -9.1,-4.4 c -3.8,0.3 -6.5,2 -9.4,6.1 a 13.09,13.09 0 0 1 -2.4,2.9 8.51,8.51 0 0 1 0.6,-2.5 68.84,68.84 0 0 0 2.8,-15.8 c 0.7,-12.3 -2.8,-22.5 -9.4,-27.2 -2.5,-1.8 -2.6,-1.8 -4.1,-1"
           style="fill:#eff0f0;fill-opacity:1" />
        <path
           id="path4"
           class="cls-2"
           d="m 212.6,79 c -7.5,3 -11.2,10.3 -13.4,26.5 -0.6,4.6 -0.6,4.6 -1.4,3.1 -2.4,-4.6 -5.7,-6.9 -9.7,-6.9 -2.8,0 -4.6,0.8 -6.9,3.2 -4.7,4.9 -4.4,12 0.6,17.6 a 8.13,8.13 0 0 0 2.4,2.1 c 0.2,0 0.7,-0.9 1,-2 0.7,-2.7 2.1,-3.9 4.3,-3.7 1.4,0.1 1.9,0.5 2.7,2.1 1.3,2.6 0.7,6.8 -1,7.1 -2.4,0.4 -3.2,3 -1.5,4.9 1.1,1.2 0.3,2.2 -2.7,3.3 -4.6,1.8 -10.4,0.3 -12.1,-3 -0.7,-1.5 -0.8,-1.5 -3.9,-0.3 -3.5,1.4 -6.8,0.8 -9.1,-1.5 -1.9,-1.9 -2.1,-2.6 -1,-4.7 a 3.28,3.28 0 0 0 0.3,-2.7 c -0.8,-2.1 2.4,-3.9 4.6,-2.5 1.2,0.8 1.3,1.1 1,3.2 -0.4,2.7 0.2,2.9 3.5,1.3 a 7.08,7.08 0 0 0 4.4,-6.3 c 0.2,-2.3 0.1,-2.6 -1.4,-4.1 -1.5,-1.5 -1.9,-1.6 -4.4,-1.4 a 23.07,23.07 0 0 0 -3.9,0.6 c -1.1,0.3 -1.1,0.2 0.6,-2.9 a 32.77,32.77 0 0 0 2.7,-7 c 1.7,-6.7 0.8,-19 -1.4,-19.4 -1.1,-0.2 -4.8,3.1 -6.4,5.8 -2.3,4 -3.5,9 -3.9,15.8 l -0.3,6.4 -2.2,-2.4 c -1.9,-2.1 -2.5,-2.4 -4.3,-2.4 a 7.13,7.13 0 0 0 -3.4,0.9 c -2.7,1.8 -3.2,8.1 -0.8,11.1 l 1.1,1.4 0.6,-1.7 c 0.4,-1.4 0.9,-1.8 2,-1.9 a 3.7,3.7 0 0 1 4.1,2.4 1.93,1.93 0 0 1 -0.6,2.5 3.26,3.26 0 0 0 -0.3,4.4 c 0.7,0.8 0.7,1 -0.2,1.8 -1.3,1.2 -5.6,1.6 -8,0.8 a 10.88,10.88 0 0 1 -3.7,-2.7 l -1.8,-2.1 -1.1,1.1 c -3.4,3.2 -10.5,1.5 -12,-2.8 l -0.7,-1.8 h -20.1 l -1.1,2.1 a 7.46,7.46 0 0 1 -11.1,2.8 8.36,8.36 0 0 0 -2.1,-1.2 c -0.1,0.1 -0.5,0.9 -1,1.6 -2.4,3.9 -10.6,4.7 -12.8,1.4 -0.5,-0.8 -0.5,-1 0.2,-1 1.4,0 1.6,-2.5 0.3,-4.2 -1.3,-1.7 -1.1,-3.1 0.8,-4.6 2.3,-1.8 4.3,-0.9 4.3,2 0,1.6 0.9,1.3 2.1,-0.6 0.9,-1.4 1,-2.3 0.9,-5.2 -0.1,-2.9 -0.4,-3.7 -1.6,-4.9 -1.2,-1.2 -1.9,-1.4 -3.9,-1.4 -2.3,0 -2.6,0.2 -4.6,2.4 l -2.1,2.5 -0.1,-5.6 C 72.9,98.9 71,92.8 66.7,88.5 c -2,-2 -3.9,-3.2 -4.4,-2.7 a 19.67,19.67 0 0 0 -1,3.3 c -1.7,6.6 -0.5,16.6 2.8,23.1 l 1.5,3.1 -2,-0.5 a 7.57,7.57 0 0 0 -7.1,1.4 c -1.8,1.5 -2,5.3 -0.4,7.5 1.8,2.4 7.5,4.7 7,2.8 -0.6,-2.3 -0.6,-2.9 0.1,-3.9 1.7,-2.3 5.8,-0.4 5.3,2.3 a 4,4 0 0 0 0.5,2.8 c 0.7,1.2 0.8,1.5 0.1,2.8 -0.9,1.8 -4.5,3.7 -7.1,3.7 a 11.83,11.83 0 0 1 -3.9,-1 c -2.6,-1.3 -2.6,-1.3 -3.2,0.4 -0.8,2 -4.4,3.8 -7.9,3.8 -3.1,0 -5.1,-0.6 -6.8,-2.2 -1.2,-1.1 -1.2,-1.1 -0.2,-2.1 1.8,-1.7 1.3,-3.8 -1.4,-4.9 -1.7,-0.7 -1.8,-0.8 -1.8,-3.5 0,-3.5 1.4,-5.6 3.7,-5.6 2.3,0 3.6,1.6 4.2,5.5 0.1,0.9 0.5,0.7 2.3,-1.1 a 14.66,14.66 0 0 0 4.7,-9.5 c 0.2,-2.5 0,-3.3 -1.3,-5.8 a 14.42,14.42 0 0 0 -3.8,-4.6 6.76,6.76 0 0 0 -5.1,-1.7 10,10 0 0 0 -4.3,0.8 c -1.7,0.9 -4.3,3.8 -5.6,6.2 l -0.9,1.7 -0.7,-5.5 C 28.2,90.6 24.4,82.8 17.5,79.6 c -4.9,-2.3 -5.1,-3.3 4.5,24.5 5.4,15.5 8.6,25.5 8.3,25.8 -0.8,0.9 -0.5,2.3 1,4 a 20.79,20.79 0 0 1 2.9,6.3 l 1.4,4.6 -1.1,1.4 c -1.8,2.3 -1.1,4.8 1.3,4.8 a 40,40 0 0 0 6.3,-1.8 c 5.9,-2 21.4,-5.9 30.2,-7.6 a 234.14,234.14 0 0 1 62.6,-3.1 c 16.9,1.5 38.8,6.1 53.6,11.2 5,1.7 6.3,1.6 6.5,-0.8 a 4.62,4.62 0 0 0 -0.9,-3.2 l -1,-1.4 1.8,-4.7 a 24.88,24.88 0 0 1 2.9,-5.8 c 0.9,-0.9 1,-1.5 0.8,-3.2 -0.2,-1.7 0.9,-5.4 6.4,-21.2 8.2,-23.6 10.6,-30.9 10.4,-31.1 0.3,-0.5 -1.2,0 -2.8,0.7 z M 68.4,100.5 a 26.81,26.81 0 0 1 1.4,8.4 l 0.3,5.5 -1.3,-2.1 c -2,-3.1 -2.9,-6.7 -2.9,-11.6 0,-3.8 0.1,-4.3 0.8,-3.8 a 33.13,33.13 0 0 1 1.7,3.6 z m 95.8,1.6 c -0.2,4.3 -0.5,5.5 -2,8.7 l -1.8,3.6 -0.1,-3.5 a 26.7,26.7 0 0 1 2,-11.8 c 1.6,-3.8 2.2,-2.9 1.9,3"
           style="fill:#eff0f0;fill-opacity:1" />
        <path
           id="path6"
           class="cls-2"
           d="m 106.3,117.2 a 3.09,3.09 0 0 0 -0.9,1.5 c 0,0.9 1.8,2.2 3,2.2 1.2,0 1.9,-1.7 1.6,-3.5 -0.3,-1.3 -2.6,-1.4 -3.7,-0.2"
           style="fill:#eff0f0;fill-opacity:1" />
        <path
           id="path13"
           class="cls-2"
           d="m 113.6,117 c -1.1,1.1 -1.1,2 0.1,3.1 1.4,1.3 3.1,1.1 3.5,-0.4 a 5.59,5.59 0 0 0 0.1,-2.2 c -0.2,-1.2 -2.7,-1.6 -3.7,-0.5"
           style="fill:#eff0f0;fill-opacity:1" />
        <path
           id="path10"
           class="cls-2"
           d="m 120.8,117.1 c -0.9,0.9 -1,1.5 -0.3,2.8 0.6,1.1 3.1,1.4 4.1,0.4 1.4,-1.4 0.1,-4.1 -2,-4.1 a 3.43,3.43 0 0 0 -1.8,0.9"
           style="fill:#eff0f0;fill-opacity:1" />
        <path
           id="path12"
           class="cls-2"
           d="m 111.7,141 a 5.94,5.94 0 0 0 -0.3,8.8 5.67,5.67 0 0 0 8.6,-0.9 c 2.6,-4.3 0.3,-9.2 -4.3,-9.2 a 5.39,5.39 0 0 0 -4,1.3"
           style="fill:#eff0f0;fill-opacity:1" />
        <path
           id="path14"
           class="cls-2"
           d="m 98.1,141.1 c 0,0.5 -1.1,1.9 -2.4,3.1 l -2.4,2.2 1.9,0.9 a 9.42,9.42 0 0 1 3,2.6 c 1.3,2.1 1.7,2.2 2.1,0.6 0.3,-1.3 3.2,-4.5 4.1,-4.5 0.9,0 0.3,-1 -1.1,-1.6 a 8.1,8.1 0 0 1 -2.9,-2.4 c -1.5,-1.9 -2.3,-2.2 -2.3,-0.9"
           style="fill:#eff0f0;fill-opacity:1" />
        <path
           id="path16"
           class="cls-2"
           d="m 131.5,141.5 a 10.91,10.91 0 0 1 -2.9,2.6 l -2.3,1.4 1.7,1.1 a 11,11 0 0 1 2.8,3.2 l 1.1,2 0.9,-1.5 a 10.74,10.74 0 0 1 3.1,-2.8 l 2.2,-1.4 -1.8,-1.4 a 10.78,10.78 0 0 1 -2.5,-2.9 c -1,-1.9 -1.4,-1.9 -2.3,-0.3"
           style="fill:#eff0f0;fill-opacity:1" />
        <path
           id="path18"
           class="cls-2"
           d="m 80.5,142.4 c -3.4,1 -4.9,5.3 -3.1,8.8 1.5,3 6,3.6 8.6,1.3 3.2,-2.8 2.4,-8.3 -1.3,-9.9 -1.9,-0.9 -1.9,-0.9 -4.2,-0.2"
           style="fill:#eff0f0;fill-opacity:1" />
        <path
           id="path20"
           class="cls-2"
           d="m 147.4,142.4 a 5.17,5.17 0 0 0 -3.8,3.5 5.82,5.82 0 0 0 1.5,6.5 5.49,5.49 0 0 0 7.7,0.1 5.72,5.72 0 0 0 1.6,-6.4 5.26,5.26 0 0 0 -7,-3.7"
           style="fill:#eff0f0;fill-opacity:1" />
        <path
           id="path22"
           class="cls-2"
           d="m 165.3,145.8 c -1,1.4 -4.1,3.3 -5.3,3.3 -1.2,0 -1.1,0.7 0.3,1.9 a 12.47,12.47 0 0 1 2.2,3.4 l 1.1,2.4 1.5,-1.5 a 9.63,9.63 0 0 1 3.5,-2.1 15.65,15.65 0 0 0 2,-0.7 11.83,11.83 0 0 0 -1.6,-1.8 5.52,5.52 0 0 1 -1.6,-2.3 7.12,7.12 0 0 0 -0.7,-2.1 c -0.6,-1.6 -0.7,-1.6 -1.4,-0.5"
           style="fill:#eff0f0;fill-opacity:1" />
        <path
           id="path24"
           class="cls-2"
           d="m 64.5,147 a 11.22,11.22 0 0 1 -2.2,3.6 c -1.4,1.6 -1.7,2.1 -1.1,2.1 1.2,0 4,1.5 5.6,3 l 1.4,1.3 0.3,-1.5 a 13.52,13.52 0 0 1 2.1,-3.8 l 1.8,-2.3 -2.2,-0.6 a 8,8 0 0 1 -3.4,-1.9 c -1.6,-1.8 -1.9,-1.8 -2.3,0.1"
           style="fill:#eff0f0;fill-opacity:1" />
        <path
           id="path26"
           class="cls-2"
           d="m 47.1,150.3 a 7,7 0 0 0 -3.2,6 4.12,4.12 0 0 0 1.5,3.7 5.84,5.84 0 0 0 7.9,0.1 c 2.2,-1.8 2.7,-3.4 2.1,-5.9 -1.1,-3.7 -5.1,-5.6 -8.3,-3.9"
           style="fill:#eff0f0;fill-opacity:1" />
        <path
           id="path28"
           class="cls-2"
           d="m 179.5,150.2 c -3.2,0.9 -4.7,5.4 -3,8.7 0.9,1.8 2.9,2.7 5.6,2.7 a 5.76,5.76 0 0 0 5.6,-5.4 c 0,-4.8 -3.5,-7.4 -8.2,-6"
           style="fill:#eff0f0;fill-opacity:1" />
        <path
           id="path30"
           class="cls-2"
           d="m 102.2,153.9 c -19.6,1.4 -41.4,5.6 -55.4,10.9 -4.2,1.6 -6.6,4 -6.6,6.6 0,2.3 0.3,2.9 1.9,3.8 1.8,1 2.9,0.8 11.3,-2 22.8,-7.4 36.8,-9.6 61.6,-9.7 16.6,0 22.4,0.4 34.7,2.6 11.9,2.2 26.4,6.3 33,9.3 3.8,1.7 5.8,1.7 7.7,-0.2 2.7,-2.7 1.8,-6.1 -2.3,-8.2 -4.9,-2.5 -24.1,-8.1 -35,-10 -18.9,-3.5 -33.4,-4.4 -50.9,-3.1"
           style="fill:#eff0f0;fill-opacity:1" />
      </g>
    </g>
  </g>
  <metadata
     id="metadata1181">
    <rdf:RDF>
      <cc:Work
         rdf:about="">
        <dc:title>Risorsa 1</dc:title>
      </cc:Work>
    </rdf:RDF>
  </metadata>
</svg>
