<?xml version="1.0" encoding="UTF-8" standalone="no"?>
<svg
   viewBox="0 0 32 32"
   version="1.1"
   id="svg47"
   sodipodi:docname="5172962_cyber_internet_lock_locked_padlock_icon.svg"
   inkscape:version="1.1.2 (0a00cf5339, 2022-02-04)"
   xmlns:inkscape="http://www.inkscape.org/namespaces/inkscape"
   xmlns:sodipodi="http://sodipodi.sourceforge.net/DTD/sodipodi-0.dtd"
   xmlns="http://www.w3.org/2000/svg"
   xmlns:svg="http://www.w3.org/2000/svg">
  <sodipodi:namedview
     id="namedview49"
     pagecolor="#ffffff"
     bordercolor="#666666"
     borderopacity="1.0"
     inkscape:pageshadow="2"
     inkscape:pageopacity="0.0"
     inkscape:pagecheckerboard="0"
     showgrid="false"
     inkscape:zoom="17.218037"
     inkscape:cx="22.47643"
     inkscape:cy="17.452629"
     inkscape:window-width="1920"
     inkscape:window-height="1021"
     inkscape:window-x="1"
     inkscape:window-y="1200"
     inkscape:window-maximized="1"
     inkscape:current-layer="Cyber_Security" />
  <defs
     id="defs4">
    <style
       id="style2">.cls-1{fill:#0e6ae0;}.cls-2{fill:#0593ff;}.cls-3{fill:#d8e1ef;}</style>
  </defs>
  <title
     id="title6" />
  <g
     data-name="Cyber Security"
     id="Cyber_Security">
    <path
       class="cls-1"
       d="M18,14H14a1,1,0,0,1-1-1V11a3,3,0,0,1,6,0v2A1,1,0,0,1,18,14Zm-3-2h2V11a1,1,0,0,0-2,0Z"
       id="path8"
       style="fill:#eff0f0;fill-opacity:1" />
    <path
       id="rect10"
       class="cls-2"
       d="M 13 12 C 11.338 12 10 13.338 10 15 L 10 21 C 10 22.662 11.338 24 13 24 L 19 24 C 20.662 24 22 22.662 22 21 L 22 15 C 22 13.338 20.662 12 19 12 L 13 12 z M 16.355469 15.019531 A 2 2 0 0 1 18 17 A 2 2 0 0 1 17 18.720703 L 17 20 A 1 1 0 0 1 15 20 L 15 18.720703 A 2 2 0 0 1 16.355469 15.019531 z "
       style="fill:#eff0f0;fill-opacity:1" />
    <path
       class="cls-3"
       d="M16,7a1,1,0,0,1-1-1V4a1,1,0,0,1,2,0V6A1,1,0,0,1,16,7Z"
       id="path14"
       style="fill:#eff0f0;fill-opacity:1" />
    <path
       class="cls-3"
       d="M21,12a1,1,0,0,1-.71-.29,1,1,0,0,1,0-1.42L24,6.59V5a1,1,0,0,1,2,0V7a1,1,0,0,1-.29.71l-4,4A1,1,0,0,1,21,12Z"
       id="path16"
       style="fill:#eff0f0;fill-opacity:1" />
    <path
       class="cls-3"
       d="M11,12a1,1,0,0,1-.71-.29l-4-4A1,1,0,0,1,6,7V5A1,1,0,0,1,8,5V6.59l3.71,3.7a1,1,0,0,1,0,1.42A1,1,0,0,1,11,12Z"
       id="path18"
       style="fill:#eff0f0;fill-opacity:1" />
    <path
       class="cls-3"
       d="M25,28a1,1,0,0,1-1-1V25.41l-1.71-1.7a1,1,0,0,1,1.42-1.42l2,2A1,1,0,0,1,26,25v2A1,1,0,0,1,25,28Z"
       id="path20"
       style="fill:#eff0f0;fill-opacity:1" />
    <path
       class="cls-3"
       d="M7,28a1,1,0,0,1-1-1V25a1,1,0,0,1,.29-.71l2-2a1,1,0,0,1,1.42,1.42L8,25.41V27A1,1,0,0,1,7,28Z"
       id="path22"
       style="fill:#eff0f0;fill-opacity:1" />
    <path
       class="cls-3"
       d="M16,29a1,1,0,0,1-1-1V26a1,1,0,0,1,2,0v2A1,1,0,0,1,16,29Z"
       id="path24"
       style="fill:#eff0f0;fill-opacity:1" />
    <path
       class="cls-3"
       d="M28,17H24a1,1,0,0,1,0-2h4a1,1,0,0,1,0,2Z"
       id="path26"
       style="fill:#eff0f0;fill-opacity:1" />
    <path
       class="cls-3"
       d="M8,17H4a1,1,0,0,1,0-2H8a1,1,0,0,1,0,2Z"
       id="path28"
       style="fill:#eff0f0;fill-opacity:1" />
    <path
       class="cls-3"
       d="M25,6a2,2,0,1,1,1.41-.59A2,2,0,0,1,25,6Z"
       id="path30"
       style="fill:#eff0f0;fill-opacity:1" />
    <path
       class="cls-3"
       d="M7,6a2,2,0,1,1,1.41-.59A2,2,0,0,1,7,6ZM7,4Z"
       id="path32"
       style="fill:#eff0f0;fill-opacity:1" />
    <path
       class="cls-3"
       d="M25,30a2,2,0,1,1,1.41-.59A2,2,0,0,1,25,30Zm0-2Z"
       id="path34"
       style="fill:#eff0f0;fill-opacity:1" />
    <path
       class="cls-3"
       d="M7,30a2,2,0,1,1,1.41-.59A2,2,0,0,1,7,30Z"
       id="path36"
       style="fill:#eff0f0;fill-opacity:1" />
    <circle
       class="cls-3"
       cx="29"
       cy="16"
       r="2"
       id="circle38"
       style="fill:#eff0f0;fill-opacity:1" />
    <circle
       class="cls-3"
       cx="3"
       cy="16"
       r="2"
       id="circle40"
       style="fill:#eff0f0;fill-opacity:1" />
    <path
       class="cls-3"
       d="M16,29Zm0,2a2,2,0,1,1,2-2A2,2,0,0,1,16,31Z"
       id="path42"
       style="fill:#eff0f0;fill-opacity:1" />
    <path
       class="cls-3"
       d="M 16,5 C 14.791862,4.7596798 13.325994,2.8457229 14.585858,1.5858583 15.845723,0.32599366 18,1.2180664 18,3 18,4.1045695 16.924692,5.1839378 16,5 Z"
       id="path44"
       sodipodi:nodetypes="assa"
       style="fill:#eff0f0;fill-opacity:1" />
  </g>
</svg>
