<?xml version="1.0" encoding="UTF-8"?>
<svg width="50.041" height="85.332" clip-rule="evenodd" fill-rule="evenodd" stroke-linejoin="round" stroke-miterlimit="1.4142" version="1.1" viewBox="0 0 50.041 85.332" xml:space="preserve" xmlns="http://www.w3.org/2000/svg"><g fill="#eff0f0"><path d="m19.856 84.752c-7.1916-1.6354-12.359-7.8913-13.662-16.539-0.31214-2.0722-0.31073-6.6727 0.00265-8.605 0.81356-5.0165 3.274-8.0108 6.7461-8.21 1.4915-0.08556 2.2754 0.13207 3.2497 0.90226 0.87431 0.6911 1.3174 0.77358 1.5746 0.29309 0.39497-0.73801-0.72444-2.0188-2.3244-2.6596-0.74169-0.29702-1.1513-0.34618-2.8462-0.34163-1.0889 0.0029-1.9798-0.01747-1.9798-0.04532 0-0.05862 0.94198-1.7353 4.6053-8.1972 3.865-6.8175 3.5714-6.2471 3.3756-6.5595-0.09405-0.15003-0.31933-0.29489-0.50061-0.3219-0.27364-0.04077-0.62799 0.40742-2.087 2.6398-0.96658 1.4789-2.3833 3.7011-3.1483 4.9384-1.1315 1.83-1.695 2.5566-3.0213 3.896-1.3994 1.4132-1.8268 1.7435-3.0162 2.3312-1.3495 0.66675-1.4248 0.68461-2.8727 0.68102-2.1105-0.0052-2.9265-0.51216-3.6182-2.2479-0.2953-0.74093-0.33931-1.1419-0.33232-3.028 0.00708-1.9089 0.065602-2.3927 0.48-3.9682 0.61099-2.323 1.8388-5.1686 3.0143-6.9864 1.4787-2.2866 5.8851-6.4323 6.2133-5.8458 0.06548 0.117 0.3715 1.3246 0.68004 2.6836 0.6837 3.0113 0.77841 3.2326 1.4105 3.2943 0.64386 0.06287 0.6878-0.06737 1.4457-4.2844 0.3421-1.9035 0.65854-3.5201 0.7032-3.5923 0.12997-0.21029 1.0011-0.28528 1.7307-0.14897 1.4318 0.26748 1.9677 0.843 3.6343 3.9026 0.96229 1.7666 1.0528 1.8024 2.6606 1.0543 1.8616-0.86623 3.9326-0.75594 6.0733 0.32344 3.7878 1.9098 6.9286 5.4871 9.595 10.928 1.6772 3.4227 2.5715 6.114 3.3435 10.062 0.14792 0.75658 0.40071 1.5365 0.5662 1.7469 0.42237 0.53696 1.3242 0.52369 1.9812-0.02914 0.40415-0.34007 0.54646-0.38182 0.8422-0.24707 0.41659 0.18981 0.908 1.1654 1.2375 2.4569 0.79371 3.1109 0.92448 11.57 0.23217 15.017-0.20104 1.0011 0.13768 0.87895-3.3091 1.1928-4.6226 0.42097-11.603 2.2135-14.703 3.7753-1.9701 0.99278-3.0401 1.7524-4.4053 3.1273-2.206 2.2216-2.8109 4.2425-1.9488 6.5101 0.18878 0.49652 0.13568 0.49979-1.6227 0.09993zm-12.415-46.132c0.17433-0.28208 0.52595-3.258 0.53116-4.4954 6e-3 -1.4201-0.22791-1.8591-0.99053-1.8591-0.66682 0-1.2807 0.56889-1.4211 1.3168-0.26935 1.4358 0.19019 3.4484 1.1087 4.8555 0.24311 0.37245 0.60183 0.4571 0.77177 0.18213z"/><path d="m24.657 85.133c-0.34841-0.12938-0.87248-0.48183-1.1646-0.78323-0.46647-0.48128-0.53104-0.64618-0.53041-1.3546 9.92e-4 -1.117 0.53624-2.0915 1.8073-3.2905 2.0328-1.9176 4.5499-3.0845 9.0422-4.1917 4.2415-1.0454 7.1464-1.4892 10.404-1.5893 3.0139-0.09267 4.5037 0.07044 5.3513 0.58591 0.8721 0.53036 0.54784 1.5697-1.0198 3.2686-2.9948 3.2456-8.9435 5.9077-15.958 7.1413-2.4824 0.43657-7.0033 0.55832-7.9316 0.21361z"/><path d="m11.022 84.591c-4.707-0.62341-7.9767-1.6206-8.9701-2.7355-0.38624-0.43354-0.7527-1.8569-0.75099-2.9169 0.00274-1.7026 0.9608-3.1364 2.3448-3.509 1.141-0.30725 1.8408 0.11256 2.712 1.627 1.4468 2.5151 3.7654 4.9764 6.1835 6.5642 0.86278 0.56652 1.6351 1.0875 1.7162 1.1577 0.22145 0.19172-0.83446 0.13054-3.2355-0.18746z"/><path d="m11.553 26.788c-0.0026-0.06633-0.21314-1.5687-0.46787-3.3385-0.9429-6.5512-1.1528-9.1699-1.1603-14.476-0.0065-4.5675 0.01605-4.9815 0.34043-6.2538 0.38866-1.5245 0.63162-2.0704 1.1167-2.5094 0.28942-0.26193 0.35975-0.27136 0.55648-0.074626 0.83883 0.83883 1.2972 6.227 1.0212 12.005-0.27427 5.7435-0.99904 14.08-1.2634 14.531-0.0762 0.13007-0.14067 0.18222-0.14327 0.11588z"/><path d="m17.509 22.952c-0.18028-0.07284-0.36334-0.22563-0.40679-0.33954-0.223-0.5845 0.57786-9.7662 1.1914-13.659 0.74216-4.7092 1.9879-8.5882 2.557-7.9619 0.72896 0.80225 1.0107 5.0034 0.56272 8.3902-0.35591 2.6905-1.0339 6.0391-1.9516 9.6387-1.057 4.1459-1.1183 4.2692-1.9528 3.932z"/></g></svg>
